<svg width="471" height="498" viewBox="0 0 471 498" fill="none" xmlns="http://www.w3.org/2000/svg">
<g clip-path="url(#clip0_40_4)">
<path d="M189.813 4.78809H29.813C17.6627 4.78809 7.81299 14.6378 7.81299 26.7881V405.788C7.81299 417.938 17.6627 427.788 29.813 427.788H189.813C201.963 427.788 211.813 417.938 211.813 405.788V26.7881C211.813 14.6378 201.963 4.78809 189.813 4.78809Z" fill="url(#paint0_linear_40_4)"/>
<path d="M64.813 227.348V202.07H74.129C75.863 202.07 77.361 202.337 78.625 202.87C79.889 203.405 80.864 204.164 81.55 205.15C82.236 206.134 82.58 207.291 82.58 208.62C82.58 209.83 82.314 210.893 81.785 211.807C81.2552 212.721 80.479 213.467 79.545 213.961C80.845 214.459 81.857 215.248 82.579 216.328C83.301 217.408 83.662 218.684 83.662 220.156C83.662 221.627 83.277 222.896 82.507 223.965C81.737 225.033 80.653 225.864 79.257 226.457C77.861 227.05 76.212 227.347 74.31 227.347H64.813V227.348ZM70.013 206.448V212.252H73.552C74.732 212.252 75.64 212.009 76.278 211.522C76.916 211.035 77.235 210.317 77.235 209.368C77.235 208.418 76.915 207.695 76.278 207.196C75.64 206.698 74.731 206.449 73.552 206.449H70.012L70.013 206.448ZM70.013 222.968H74.057C75.405 222.968 76.447 222.683 77.181 222.114C77.915 221.544 78.282 220.725 78.282 219.657C78.282 218.589 77.915 217.77 77.181 217.201C76.446 216.631 75.405 216.346 74.057 216.346H70.013V222.968ZM86.876 227.348V200.788H91.932V227.348H86.876ZM105.148 227.881C103.728 227.881 102.416 227.632 101.212 227.134C100.037 226.655 98.969 225.947 98.07 225.051C97.1729 224.151 96.4668 223.079 95.994 221.9C95.5 220.69 95.254 219.372 95.254 217.948C95.254 216.524 95.506 215.213 96.012 214.014C96.5037 212.836 97.2212 211.766 98.124 210.864C99.0322 209.958 100.113 209.244 101.302 208.763C102.518 208.264 103.848 208.015 105.292 208.015C106.712 208.015 108.025 208.265 109.228 208.763C110.403 209.242 111.471 209.95 112.37 210.846C113.264 211.741 113.97 212.807 114.446 213.979C114.94 215.177 115.186 216.489 115.186 217.913C115.186 219.337 114.934 220.654 114.428 221.864C113.94 223.049 113.222 224.126 112.316 225.033C111.408 225.938 110.327 226.653 109.138 227.133C107.922 227.632 106.592 227.881 105.148 227.881V227.881ZM105.22 223.395C106.135 223.395 106.953 223.158 107.676 222.683C108.398 222.209 108.969 221.562 109.391 220.743C109.812 219.924 110.023 218.993 110.023 217.948C110.023 216.904 109.812 215.972 109.391 215.153C108.969 214.335 108.398 213.688 107.676 213.213C106.953 212.738 106.135 212.501 105.22 212.501C104.305 212.501 103.487 212.738 102.765 213.213C102.042 213.688 101.471 214.335 101.049 215.153C100.629 215.973 100.417 216.903 100.417 217.948C100.417 218.993 100.628 219.924 101.049 220.743C101.471 221.562 102.042 222.209 102.765 222.683C103.487 223.158 104.305 223.395 105.22 223.395ZM126.344 226.813C125.181 226.822 124.029 226.579 122.968 226.101C121.934 225.636 121.006 224.963 120.242 224.125C119.459 223.263 118.846 222.26 118.436 221.17C118.003 220.043 117.786 218.826 117.786 217.521C117.786 216.168 118.009 214.916 118.454 213.765C118.877 212.649 119.515 211.627 120.332 210.757C121.13 209.908 122.087 209.225 123.149 208.745C124.219 208.259 125.381 208.015 126.633 208.015C127.861 208.015 128.968 208.259 129.955 208.745C130.941 209.23 131.786 209.959 132.411 210.863L132.519 208.549H137.177V225.104C137.177 226.552 136.943 227.869 136.473 229.056C136.028 230.206 135.345 231.25 134.469 232.118C133.587 232.982 132.536 233.655 131.382 234.094C130.19 234.557 128.872 234.788 127.428 234.788C126.008 234.788 124.731 234.568 123.6 234.129C122.505 233.713 121.5 233.091 120.639 232.296C119.803 231.522 119.128 230.59 118.653 229.554L123.492 228.38C123.908 229.052 124.485 229.609 125.171 230C125.857 230.391 126.633 230.587 127.5 230.587C128.439 230.587 129.251 230.379 129.937 229.964C130.626 229.545 131.183 228.94 131.544 228.219C131.929 227.472 132.122 226.599 132.122 225.603V224.072C131.468 224.929 130.62 225.618 129.648 226.083C128.649 226.57 127.548 226.813 126.344 226.813V226.813ZM127.572 222.398C128.462 222.398 129.252 222.178 129.937 221.74C130.627 221.296 131.193 220.684 131.58 219.96C131.99 219.212 132.194 218.364 132.194 217.414C132.194 216.464 131.99 215.616 131.58 214.869C131.193 214.145 130.627 213.533 129.937 213.089C129.251 212.649 128.463 212.429 127.572 212.429C126.682 212.429 125.893 212.649 125.207 213.089C124.517 213.533 123.951 214.145 123.564 214.869C123.154 215.616 122.95 216.465 122.95 217.414C122.95 218.364 123.155 219.212 123.564 219.96C123.974 220.707 124.521 221.3 125.207 221.74C125.893 222.179 126.681 222.398 127.572 222.398ZM141.222 227.348V208.548H145.88L146.06 211.396C146.542 210.4 147.192 209.634 148.01 209.1C148.829 208.566 149.792 208.299 150.9 208.299C151.236 208.299 151.573 208.329 151.91 208.388C152.247 208.448 152.548 208.525 152.813 208.619L152.271 213.533C152.008 213.439 151.736 213.373 151.459 213.337C151.177 213.301 150.894 213.283 150.61 213.283C149.214 213.283 148.143 213.705 147.397 214.547C146.65 215.39 146.277 216.582 146.277 218.125V227.346H141.222V227.348Z" fill="white"/>
<g filter="url(#filter0_d_40_4)">
<path d="M204.255 401.682C204.255 412.269 196.44 421.39 185.857 421.39H34.939C24.355 421.39 15.153 412.269 15.153 401.682V29.847C15.153 19.26 24.355 11.52 34.939 11.52H52.386C56.075 11.52 57.437 11.098 57.661 15.775C57.777 18.205 58.668 20.093 60.096 21.656C61.522 23.19 63.486 24.45 65.742 25.157C67.273 25.637 68.978 26.071 70.603 26.071H150.354C151.98 26.071 153.684 25.537 155.215 25.058C157.473 24.351 159.435 23.171 160.862 21.666C162.29 20.131 163.181 18.322 163.296 15.893C163.519 11.217 164.883 11.52 168.572 11.52H185.857C196.44 11.52 204.255 19.26 204.255 29.847V401.682V401.682ZM98.66 13.338H122.297C123.301 13.338 124.116 13.96 124.116 14.853C124.116 15.746 123.301 16.369 122.297 16.369H98.66C97.655 16.369 96.842 15.746 96.842 14.853C96.842 13.96 97.655 13.338 98.66 13.338V13.338ZM134.723 13.86C134.723 14.5636 134.443 15.2384 133.946 15.736C133.448 16.2335 132.774 16.513 132.07 16.513C131.366 16.513 130.692 16.2335 130.194 15.736C129.697 15.2384 129.417 14.5636 129.417 13.86C129.417 13.1564 129.697 12.4816 130.194 11.984C130.692 11.4865 131.366 11.207 132.07 11.207C132.774 11.207 133.448 11.4865 133.946 11.984C134.443 12.4816 134.723 13.1564 134.723 13.86ZM215.771 98.828V31.042C215.771 13.898 201.878 0 184.739 0H33.961C16.284 0 1.819 14.47 1.819 32.155V56.994C1.33674 56.994 0.874226 57.1855 0.533126 57.5264C0.192026 57.8673 0.000265121 58.3297 0 58.812V71.545C-7.28355e-08 72.0275 0.191612 72.4903 0.532712 72.8316C0.873812 73.1729 1.33648 73.3647 1.819 73.365V88.522C1.33648 88.5223 0.873812 88.7141 0.532712 89.0554C0.191612 89.3967 -7.28355e-08 89.8595 0 90.342V117.626C0.000529789 118.108 0.192376 118.57 0.533418 118.911C0.874461 119.252 1.33683 119.444 1.819 119.444V128.539C1.33683 128.539 0.874461 128.731 0.533418 129.072C0.192376 129.413 0.000529789 129.875 0 130.357V157.642C-7.28355e-08 158.125 0.191612 158.587 0.532712 158.929C0.873812 159.27 1.33648 159.462 1.819 159.462V403.078C1.819 420.818 16.328 435.335 34.062 435.335H184.739C201.806 435.335 215.771 421.365 215.771 404.292V149.152H216.376C216.615 149.152 216.852 149.105 217.072 149.014C217.293 148.922 217.494 148.788 217.663 148.62C217.832 148.451 217.966 148.25 218.057 148.029C218.149 147.809 218.196 147.572 218.196 147.333V100.648C218.196 99.643 217.382 98.828 216.376 98.828H215.771V98.828Z" fill="black"/>
</g>
<path d="M204.255 401.682C204.255 412.269 196.44 421.39 185.857 421.39H34.939C24.355 421.39 15.153 412.269 15.153 401.682V29.847C15.153 19.26 24.355 11.52 34.939 11.52H52.386C56.075 11.52 57.437 11.098 57.661 15.775C57.777 18.205 58.668 20.093 60.096 21.656C61.522 23.19 63.486 24.45 65.742 25.157C67.273 25.637 68.978 26.071 70.603 26.071H150.354C151.98 26.071 153.684 25.537 155.215 25.058C157.473 24.351 159.435 23.171 160.862 21.666C162.29 20.131 163.181 18.322 163.296 15.893C163.519 11.217 164.883 11.52 168.572 11.52H185.857C196.44 11.52 204.255 19.26 204.255 29.847V401.682V401.682ZM98.66 13.338H122.297C123.301 13.338 124.116 13.96 124.116 14.853C124.116 15.746 123.301 16.369 122.297 16.369H98.66C97.655 16.369 96.842 15.746 96.842 14.853C96.842 13.96 97.655 13.338 98.66 13.338V13.338ZM134.723 13.86C134.723 14.5636 134.443 15.2384 133.946 15.736C133.448 16.2335 132.774 16.513 132.07 16.513C131.366 16.513 130.692 16.2335 130.194 15.736C129.697 15.2384 129.417 14.5636 129.417 13.86C129.417 13.1564 129.697 12.4816 130.194 11.984C130.692 11.4865 131.366 11.207 132.07 11.207C132.774 11.207 133.448 11.4865 133.946 11.984C134.443 12.4816 134.723 13.1564 134.723 13.86ZM215.771 98.828V31.042C215.771 13.898 201.878 0 184.739 0H33.961C16.284 0 1.819 14.47 1.819 32.155V56.994C1.33674 56.994 0.874226 57.1855 0.533126 57.5264C0.192026 57.8673 0.000265121 58.3297 0 58.812V71.545C-7.28355e-08 72.0275 0.191612 72.4903 0.532712 72.8316C0.873812 73.1729 1.33648 73.3647 1.819 73.365V88.522C1.33648 88.5223 0.873812 88.7141 0.532712 89.0554C0.191612 89.3967 -7.28355e-08 89.8595 0 90.342V117.626C0.000529789 118.108 0.192376 118.57 0.533418 118.911C0.874461 119.252 1.33683 119.444 1.819 119.444V128.539C1.33683 128.539 0.874461 128.731 0.533418 129.072C0.192376 129.413 0.000529789 129.875 0 130.357V157.642C-7.28355e-08 158.125 0.191612 158.587 0.532712 158.929C0.873812 159.27 1.33648 159.462 1.819 159.462V403.078C1.819 420.818 16.328 435.335 34.062 435.335H184.739C201.806 435.335 215.771 421.365 215.771 404.292V149.152H216.376C216.615 149.152 216.852 149.105 217.072 149.014C217.293 148.922 217.494 148.788 217.663 148.62C217.832 148.451 217.966 148.25 218.057 148.029C218.149 147.809 218.196 147.572 218.196 147.333V100.648C218.196 99.643 217.382 98.828 216.376 98.828H215.771V98.828Z" fill="#1D1D25"/>
<path fill-rule="evenodd" clip-rule="evenodd" d="M122.297 13.338H98.6601C97.6551 13.338 96.8411 13.962 96.8411 14.855C96.8411 15.747 97.6551 16.37 98.6611 16.37H122.297C123.302 16.37 124.117 15.747 124.117 14.855C124.117 13.962 123.302 13.338 122.297 13.338V13.338ZM132.071 11.208C131.367 11.2083 130.693 11.488 130.195 11.9858C129.698 12.4835 129.419 13.1584 129.419 13.862C129.419 14.5656 129.699 15.2403 130.197 15.7377C130.695 16.235 131.369 16.5143 132.073 16.514C132.777 16.5137 133.451 16.234 133.949 15.7363C134.446 15.2385 134.725 14.5636 134.725 13.86C134.725 13.1564 134.445 12.4817 133.947 11.9843C133.45 11.487 132.775 11.2077 132.071 11.208" fill="black"/>
<path d="M442.813 67.7881H282.813C270.663 67.7881 260.813 77.6378 260.813 89.7881V468.788C260.813 480.938 270.663 490.788 282.813 490.788H442.813C454.963 490.788 464.813 480.938 464.813 468.788V89.7881C464.813 77.6378 454.963 67.7881 442.813 67.7881Z" fill="url(#paint1_linear_40_4)"/>
<path d="M435.148 73.7881H289.813C277.663 73.7881 267.813 83.6378 267.813 95.7881V466.109C267.813 478.259 277.663 488.109 289.813 488.109H435.148C447.298 488.109 457.148 478.259 457.148 466.109V95.7881C457.148 83.6378 447.298 73.7881 435.148 73.7881Z" fill="white"/>
<path d="M435.148 73.7881H289.813C277.663 73.7881 267.813 83.6378 267.813 95.7881V125.057C267.813 137.207 277.663 147.057 289.813 147.057H435.148C447.298 147.057 457.148 137.207 457.148 125.057V95.7881C457.148 83.6378 447.298 73.7881 435.148 73.7881Z" fill="url(#paint2_linear_40_4)"/>
<g filter="url(#filter1_d_40_4)">
<path d="M441.805 120.018H283.156C280.947 120.018 279.156 121.809 279.156 124.018V174.459C279.156 176.668 280.947 178.459 283.156 178.459H441.805C444.014 178.459 445.805 176.668 445.805 174.459V124.018C445.805 121.809 444.014 120.018 441.805 120.018Z" fill="black"/>
</g>
<path d="M441.805 120.018H283.156C280.947 120.018 279.156 121.809 279.156 124.018V174.459C279.156 176.668 280.947 178.459 283.156 178.459H441.805C444.014 178.459 445.805 176.668 445.805 174.459V124.018C445.805 121.809 444.014 120.018 441.805 120.018Z" fill="white"/>
<g filter="url(#filter2_d_40_4)">
<path d="M441.805 192.415H283.156C280.947 192.415 279.156 194.206 279.156 196.415V246.856C279.156 249.065 280.947 250.856 283.156 250.856H441.805C444.014 250.856 445.805 249.065 445.805 246.856V196.415C445.805 194.206 444.014 192.415 441.805 192.415Z" fill="black"/>
</g>
<path d="M441.805 192.415H283.156C280.947 192.415 279.156 194.206 279.156 196.415V246.856C279.156 249.065 280.947 250.856 283.156 250.856H441.805C444.014 250.856 445.805 249.065 445.805 246.856V196.415C445.805 194.206 444.014 192.415 441.805 192.415Z" fill="white"/>
<g filter="url(#filter3_d_40_4)">
<path d="M441.805 264.812H283.156C280.947 264.812 279.156 266.603 279.156 268.812V319.253C279.156 321.462 280.947 323.253 283.156 323.253H441.805C444.014 323.253 445.805 321.462 445.805 319.253V268.812C445.805 266.603 444.014 264.812 441.805 264.812Z" fill="black"/>
</g>
<path d="M441.805 264.812H283.156C280.947 264.812 279.156 266.603 279.156 268.812V319.253C279.156 321.462 280.947 323.253 283.156 323.253H441.805C444.014 323.253 445.805 321.462 445.805 319.253V268.812C445.805 266.603 444.014 264.812 441.805 264.812Z" fill="white"/>
<g filter="url(#filter4_d_40_4)">
<path d="M441.805 337.21H283.156C280.947 337.21 279.156 339.001 279.156 341.21V391.651C279.156 393.86 280.947 395.651 283.156 395.651H441.805C444.014 395.651 445.805 393.86 445.805 391.651V341.21C445.805 339.001 444.014 337.21 441.805 337.21Z" fill="black"/>
</g>
<path d="M441.805 337.21H283.156C280.947 337.21 279.156 339.001 279.156 341.21V391.651C279.156 393.86 280.947 395.651 283.156 395.651H441.805C444.014 395.651 445.805 393.86 445.805 391.651V341.21C445.805 339.001 444.014 337.21 441.805 337.21Z" fill="white"/>
<g filter="url(#filter5_d_40_4)">
<path d="M441.805 409.607H283.156C280.947 409.607 279.156 411.398 279.156 413.607V464.048C279.156 466.257 280.947 468.048 283.156 468.048H441.805C444.014 468.048 445.805 466.257 445.805 464.048V413.607C445.805 411.398 444.014 409.607 441.805 409.607Z" fill="black"/>
</g>
<path d="M441.805 409.607H283.156C280.947 409.607 279.156 411.398 279.156 413.607V464.048C279.156 466.257 280.947 468.048 283.156 468.048H441.805C444.014 468.048 445.805 466.257 445.805 464.048V413.607C445.805 411.398 444.014 409.607 441.805 409.607Z" fill="white"/>
<path d="M317.813 290.348V265.07H327.129C328.863 265.07 330.361 265.337 331.625 265.87C332.889 266.405 333.864 267.164 334.55 268.15C335.236 269.134 335.58 270.291 335.58 271.62C335.58 272.83 335.314 273.893 334.785 274.807C334.255 275.721 333.479 276.467 332.545 276.961C333.845 277.459 334.857 278.248 335.579 279.328C336.301 280.408 336.662 281.684 336.662 283.156C336.662 284.627 336.277 285.896 335.507 286.965C334.737 288.033 333.653 288.864 332.257 289.457C330.861 290.05 329.212 290.347 327.31 290.347H317.813V290.348ZM323.013 269.448V275.252H326.552C327.732 275.252 328.64 275.009 329.278 274.522C329.916 274.035 330.235 273.317 330.235 272.368C330.235 271.418 329.915 270.695 329.278 270.196C328.64 269.698 327.731 269.449 326.552 269.449H323.012L323.013 269.448ZM323.013 285.968H327.057C328.405 285.968 329.447 285.683 330.181 285.114C330.915 284.544 331.282 283.725 331.282 282.657C331.282 281.589 330.915 280.77 330.181 280.201C329.446 279.631 328.405 279.346 327.057 279.346H323.013V285.968ZM339.876 290.348V263.788H344.932V290.348H339.876ZM358.148 290.881C356.728 290.881 355.416 290.632 354.212 290.134C353.037 289.655 351.969 288.947 351.07 288.051C350.173 287.151 349.467 286.079 348.994 284.9C348.5 283.69 348.254 282.372 348.254 280.948C348.254 279.524 348.506 278.213 349.012 277.014C349.504 275.836 350.221 274.766 351.124 273.864C352.032 272.958 353.113 272.244 354.302 271.763C355.518 271.264 356.848 271.015 358.292 271.015C359.712 271.015 361.025 271.265 362.228 271.763C363.403 272.242 364.471 272.95 365.37 273.846C366.264 274.741 366.97 275.807 367.446 276.979C367.94 278.177 368.186 279.489 368.186 280.913C368.186 282.337 367.934 283.654 367.428 284.864C366.94 286.049 366.222 287.126 365.316 288.033C364.408 288.938 363.327 289.653 362.138 290.133C360.922 290.632 359.592 290.881 358.148 290.881V290.881ZM358.22 286.395C359.135 286.395 359.953 286.158 360.676 285.683C361.398 285.209 361.969 284.562 362.391 283.743C362.812 282.924 363.023 281.993 363.023 280.948C363.023 279.904 362.812 278.972 362.391 278.153C361.969 277.335 361.398 276.688 360.676 276.213C359.953 275.738 359.135 275.501 358.22 275.501C357.305 275.501 356.487 275.738 355.765 276.213C355.042 276.688 354.471 277.335 354.049 278.153C353.629 278.973 353.417 279.903 353.417 280.948C353.417 281.993 353.628 282.924 354.049 283.743C354.471 284.562 355.042 285.209 355.765 285.683C356.487 286.158 357.305 286.395 358.22 286.395ZM379.344 289.813C378.181 289.822 377.029 289.579 375.968 289.101C374.934 288.636 374.006 287.963 373.242 287.125C372.459 286.263 371.846 285.26 371.436 284.17C371.003 283.043 370.786 281.826 370.786 280.521C370.786 279.168 371.009 277.916 371.454 276.765C371.877 275.649 372.515 274.627 373.332 273.757C374.13 272.908 375.087 272.225 376.149 271.745C377.219 271.259 378.381 271.015 379.633 271.015C380.861 271.015 381.968 271.259 382.955 271.745C383.941 272.23 384.786 272.959 385.411 273.863L385.519 271.549H390.177V288.104C390.177 289.552 389.943 290.869 389.473 292.056C389.028 293.206 388.345 294.25 387.469 295.118C386.587 295.982 385.536 296.655 384.382 297.094C383.19 297.557 381.872 297.788 380.428 297.788C379.008 297.788 377.731 297.568 376.6 297.129C375.505 296.713 374.5 296.091 373.639 295.296C372.803 294.522 372.128 293.59 371.653 292.554L376.492 291.38C376.908 292.052 377.485 292.609 378.171 293C378.857 293.391 379.633 293.587 380.5 293.587C381.439 293.587 382.251 293.379 382.937 292.964C383.626 292.545 384.183 291.94 384.544 291.219C384.929 290.472 385.122 289.599 385.122 288.603V287.072C384.468 287.929 383.62 288.618 382.648 289.083C381.649 289.57 380.548 289.813 379.344 289.813V289.813ZM380.572 285.398C381.462 285.398 382.252 285.178 382.937 284.74C383.627 284.296 384.193 283.684 384.58 282.96C384.99 282.212 385.194 281.364 385.194 280.414C385.194 279.464 384.99 278.616 384.58 277.869C384.193 277.145 383.627 276.533 382.937 276.089C382.251 275.649 381.463 275.429 380.572 275.429C379.682 275.429 378.893 275.649 378.207 276.089C377.517 276.533 376.951 277.145 376.564 277.869C376.154 278.616 375.95 279.465 375.95 280.414C375.95 281.364 376.155 282.212 376.564 282.96C376.974 283.707 377.521 284.3 378.207 284.74C378.893 285.179 379.681 285.398 380.572 285.398ZM394.222 290.348V271.548H398.88L399.06 274.396C399.542 273.4 400.192 272.634 401.01 272.1C401.829 271.566 402.792 271.299 403.9 271.299C404.236 271.299 404.573 271.329 404.91 271.388C405.247 271.448 405.548 271.525 405.813 271.619L405.271 276.533C405.008 276.439 404.736 276.373 404.459 276.337C404.177 276.301 403.894 276.283 403.61 276.283C402.214 276.283 401.143 276.705 400.397 277.547C399.65 278.39 399.277 279.582 399.277 281.125V290.346H394.222V290.348Z" fill="white"/>
<g filter="url(#filter6_d_40_4)">
<path d="M457.255 464.682C457.255 475.269 449.44 484.39 438.857 484.39H287.939C277.355 484.39 268.153 475.269 268.153 464.682V92.847C268.153 82.26 277.355 74.52 287.939 74.52H305.386C309.075 74.52 310.437 74.098 310.661 78.775C310.777 81.205 311.668 83.093 313.096 84.656C314.522 86.19 316.486 87.45 318.742 88.157C320.273 88.637 321.978 89.071 323.603 89.071H403.354C404.98 89.071 406.684 88.537 408.215 88.058C410.473 87.351 412.435 86.171 413.862 84.666C415.29 83.131 416.181 81.322 416.296 78.893C416.519 74.217 417.883 74.52 421.572 74.52H438.857C449.44 74.52 457.255 82.26 457.255 92.847V464.682V464.682ZM351.66 76.338H375.297C376.301 76.338 377.116 76.96 377.116 77.853C377.116 78.746 376.301 79.369 375.297 79.369H351.66C350.655 79.369 349.842 78.746 349.842 77.853C349.842 76.96 350.655 76.338 351.66 76.338V76.338ZM387.723 76.86C387.723 77.5636 387.443 78.2384 386.946 78.736C386.448 79.2335 385.774 79.513 385.07 79.513C384.366 79.513 383.692 79.2335 383.194 78.736C382.697 78.2384 382.417 77.5636 382.417 76.86C382.417 76.1564 382.697 75.4816 383.194 74.984C383.692 74.4865 384.366 74.207 385.07 74.207C385.774 74.207 386.448 74.4865 386.946 74.984C387.443 75.4816 387.723 76.1564 387.723 76.86ZM468.771 161.828V94.042C468.771 76.898 454.878 63 437.739 63H286.961C269.284 63 254.819 77.47 254.819 95.155V119.994C254.337 119.994 253.874 120.186 253.533 120.526C253.192 120.867 253 121.33 253 121.812V134.545C253 135.028 253.192 135.49 253.533 135.832C253.874 136.173 254.336 136.365 254.819 136.365V151.522C254.336 151.522 253.874 151.714 253.533 152.055C253.192 152.397 253 152.859 253 153.342V180.626C253.001 181.108 253.192 181.57 253.533 181.911C253.874 182.252 254.337 182.444 254.819 182.444V191.539C254.337 191.539 253.874 191.731 253.533 192.072C253.192 192.413 253.001 192.875 253 193.357V220.642C253 221.125 253.192 221.587 253.533 221.929C253.874 222.27 254.336 222.462 254.819 222.462V466.078C254.819 483.818 269.328 498.335 287.062 498.335H437.739C454.806 498.335 468.771 484.365 468.771 467.292V212.152H469.376C469.615 212.152 469.852 212.105 470.072 212.014C470.293 211.922 470.494 211.788 470.663 211.62C470.832 211.451 470.966 211.25 471.057 211.029C471.149 210.809 471.196 210.572 471.196 210.333V163.648C471.196 162.643 470.382 161.828 469.376 161.828H468.771V161.828Z" fill="black"/>
</g>
<path d="M457.255 464.682C457.255 475.269 449.44 484.39 438.857 484.39H287.939C277.355 484.39 268.153 475.269 268.153 464.682V92.847C268.153 82.26 277.355 74.52 287.939 74.52H305.386C309.075 74.52 310.437 74.098 310.661 78.775C310.777 81.205 311.668 83.093 313.096 84.656C314.522 86.19 316.486 87.45 318.742 88.157C320.273 88.637 321.978 89.071 323.603 89.071H403.354C404.98 89.071 406.684 88.537 408.215 88.058C410.473 87.351 412.435 86.171 413.862 84.666C415.29 83.131 416.181 81.322 416.296 78.893C416.519 74.217 417.883 74.52 421.572 74.52H438.857C449.44 74.52 457.255 82.26 457.255 92.847V464.682V464.682ZM351.66 76.338H375.297C376.301 76.338 377.116 76.96 377.116 77.853C377.116 78.746 376.301 79.369 375.297 79.369H351.66C350.655 79.369 349.842 78.746 349.842 77.853C349.842 76.96 350.655 76.338 351.66 76.338V76.338ZM387.723 76.86C387.723 77.5636 387.443 78.2384 386.946 78.736C386.448 79.2335 385.774 79.513 385.07 79.513C384.366 79.513 383.692 79.2335 383.194 78.736C382.697 78.2384 382.417 77.5636 382.417 76.86C382.417 76.1564 382.697 75.4816 383.194 74.984C383.692 74.4865 384.366 74.207 385.07 74.207C385.774 74.207 386.448 74.4865 386.946 74.984C387.443 75.4816 387.723 76.1564 387.723 76.86ZM468.771 161.828V94.042C468.771 76.898 454.878 63 437.739 63H286.961C269.284 63 254.819 77.47 254.819 95.155V119.994C254.337 119.994 253.874 120.186 253.533 120.526C253.192 120.867 253 121.33 253 121.812V134.545C253 135.028 253.192 135.49 253.533 135.832C253.874 136.173 254.336 136.365 254.819 136.365V151.522C254.336 151.522 253.874 151.714 253.533 152.055C253.192 152.397 253 152.859 253 153.342V180.626C253.001 181.108 253.192 181.57 253.533 181.911C253.874 182.252 254.337 182.444 254.819 182.444V191.539C254.337 191.539 253.874 191.731 253.533 192.072C253.192 192.413 253.001 192.875 253 193.357V220.642C253 221.125 253.192 221.587 253.533 221.929C253.874 222.27 254.336 222.462 254.819 222.462V466.078C254.819 483.818 269.328 498.335 287.062 498.335H437.739C454.806 498.335 468.771 484.365 468.771 467.292V212.152H469.376C469.615 212.152 469.852 212.105 470.072 212.014C470.293 211.922 470.494 211.788 470.663 211.62C470.832 211.451 470.966 211.25 471.057 211.029C471.149 210.809 471.196 210.572 471.196 210.333V163.648C471.196 162.643 470.382 161.828 469.376 161.828H468.771V161.828Z" fill="#1D1D25"/>
<path fill-rule="evenodd" clip-rule="evenodd" d="M375.297 76.338H351.66C350.655 76.338 349.841 76.962 349.841 77.855C349.841 78.747 350.655 79.37 351.661 79.37H375.297C376.302 79.37 377.117 78.747 377.117 77.855C377.117 76.962 376.302 76.338 375.297 76.338V76.338ZM385.071 74.208C384.367 74.2083 383.693 74.488 383.195 74.9858C382.698 75.4835 382.419 76.1584 382.419 76.862C382.419 77.5656 382.699 78.2403 383.197 78.7377C383.694 79.235 384.369 79.5143 385.073 79.514C385.776 79.5137 386.451 79.234 386.948 78.7363C387.446 78.2385 387.725 77.5636 387.725 76.86C387.725 76.1564 387.445 75.4817 386.947 74.9843C386.449 74.487 385.774 74.2077 385.071 74.208" fill="black"/>
</g>
<defs>
<filter id="filter0_d_40_4" x="-40" y="-20" width="298.196" height="515.335" filterUnits="userSpaceOnUse" color-interpolation-filters="sRGB">
<feFlood flood-opacity="0" result="BackgroundImageFix"/>
<feColorMatrix in="SourceAlpha" type="matrix" values="0 0 0 0 0 0 0 0 0 0 0 0 0 0 0 0 0 0 127 0" result="hardAlpha"/>
<feOffset dy="20"/>
<feGaussianBlur stdDeviation="20"/>
<feColorMatrix type="matrix" values="0 0 0 0 0.421822 0 0 0 0 0.554338 0 0 0 0 0.89371 0 0 0 0.243444 0"/>
<feBlend mode="normal" in2="BackgroundImageFix" result="effect1_dropShadow_40_4"/>
<feBlend mode="normal" in="SourceGraphic" in2="effect1_dropShadow_40_4" result="shape"/>
</filter>
<filter id="filter1_d_40_4" x="259.156" y="110.018" width="206.649" height="98.4409" filterUnits="userSpaceOnUse" color-interpolation-filters="sRGB">
<feFlood flood-opacity="0" result="BackgroundImageFix"/>
<feColorMatrix in="SourceAlpha" type="matrix" values="0 0 0 0 0 0 0 0 0 0 0 0 0 0 0 0 0 0 127 0" result="hardAlpha"/>
<feOffset dy="10"/>
<feGaussianBlur stdDeviation="10"/>
<feColorMatrix type="matrix" values="0 0 0 0 0.421822 0 0 0 0 0.554338 0 0 0 0 0.89371 0 0 0 0.243444 0"/>
<feBlend mode="normal" in2="BackgroundImageFix" result="effect1_dropShadow_40_4"/>
<feBlend mode="normal" in="SourceGraphic" in2="effect1_dropShadow_40_4" result="shape"/>
</filter>
<filter id="filter2_d_40_4" x="259.156" y="182.415" width="206.649" height="98.4409" filterUnits="userSpaceOnUse" color-interpolation-filters="sRGB">
<feFlood flood-opacity="0" result="BackgroundImageFix"/>
<feColorMatrix in="SourceAlpha" type="matrix" values="0 0 0 0 0 0 0 0 0 0 0 0 0 0 0 0 0 0 127 0" result="hardAlpha"/>
<feOffset dy="10"/>
<feGaussianBlur stdDeviation="10"/>
<feColorMatrix type="matrix" values="0 0 0 0 0.421822 0 0 0 0 0.554338 0 0 0 0 0.89371 0 0 0 0.243444 0"/>
<feBlend mode="normal" in2="BackgroundImageFix" result="effect1_dropShadow_40_4"/>
<feBlend mode="normal" in="SourceGraphic" in2="effect1_dropShadow_40_4" result="shape"/>
</filter>
<filter id="filter3_d_40_4" x="259.156" y="254.812" width="206.649" height="98.4409" filterUnits="userSpaceOnUse" color-interpolation-filters="sRGB">
<feFlood flood-opacity="0" result="BackgroundImageFix"/>
<feColorMatrix in="SourceAlpha" type="matrix" values="0 0 0 0 0 0 0 0 0 0 0 0 0 0 0 0 0 0 127 0" result="hardAlpha"/>
<feOffset dy="10"/>
<feGaussianBlur stdDeviation="10"/>
<feColorMatrix type="matrix" values="0 0 0 0 0.421822 0 0 0 0 0.554338 0 0 0 0 0.89371 0 0 0 0.243444 0"/>
<feBlend mode="normal" in2="BackgroundImageFix" result="effect1_dropShadow_40_4"/>
<feBlend mode="normal" in="SourceGraphic" in2="effect1_dropShadow_40_4" result="shape"/>
</filter>
<filter id="filter4_d_40_4" x="259.156" y="327.21" width="206.649" height="98.4409" filterUnits="userSpaceOnUse" color-interpolation-filters="sRGB">
<feFlood flood-opacity="0" result="BackgroundImageFix"/>
<feColorMatrix in="SourceAlpha" type="matrix" values="0 0 0 0 0 0 0 0 0 0 0 0 0 0 0 0 0 0 127 0" result="hardAlpha"/>
<feOffset dy="10"/>
<feGaussianBlur stdDeviation="10"/>
<feColorMatrix type="matrix" values="0 0 0 0 0.421822 0 0 0 0 0.554338 0 0 0 0 0.89371 0 0 0 0.243444 0"/>
<feBlend mode="normal" in2="BackgroundImageFix" result="effect1_dropShadow_40_4"/>
<feBlend mode="normal" in="SourceGraphic" in2="effect1_dropShadow_40_4" result="shape"/>
</filter>
<filter id="filter5_d_40_4" x="259.156" y="399.607" width="206.649" height="98.4409" filterUnits="userSpaceOnUse" color-interpolation-filters="sRGB">
<feFlood flood-opacity="0" result="BackgroundImageFix"/>
<feColorMatrix in="SourceAlpha" type="matrix" values="0 0 0 0 0 0 0 0 0 0 0 0 0 0 0 0 0 0 127 0" result="hardAlpha"/>
<feOffset dy="10"/>
<feGaussianBlur stdDeviation="10"/>
<feColorMatrix type="matrix" values="0 0 0 0 0.421822 0 0 0 0 0.554338 0 0 0 0 0.89371 0 0 0 0.243444 0"/>
<feBlend mode="normal" in2="BackgroundImageFix" result="effect1_dropShadow_40_4"/>
<feBlend mode="normal" in="SourceGraphic" in2="effect1_dropShadow_40_4" result="shape"/>
</filter>
<filter id="filter6_d_40_4" x="213" y="43" width="298.196" height="515.335" filterUnits="userSpaceOnUse" color-interpolation-filters="sRGB">
<feFlood flood-opacity="0" result="BackgroundImageFix"/>
<feColorMatrix in="SourceAlpha" type="matrix" values="0 0 0 0 0 0 0 0 0 0 0 0 0 0 0 0 0 0 127 0" result="hardAlpha"/>
<feOffset dy="20"/>
<feGaussianBlur stdDeviation="20"/>
<feColorMatrix type="matrix" values="0 0 0 0 0.421822 0 0 0 0 0.554338 0 0 0 0 0.89371 0 0 0 0.243444 0"/>
<feBlend mode="normal" in2="BackgroundImageFix" result="effect1_dropShadow_40_4"/>
<feBlend mode="normal" in="SourceGraphic" in2="effect1_dropShadow_40_4" result="shape"/>
</filter>
<linearGradient id="paint0_linear_40_4" x1="86.0898" y1="4.78808" x2="260.547" y2="366.536" gradientUnits="userSpaceOnUse">
<stop stop-color="#FF8F71"/>
<stop offset="1" stop-color="#FF3E55"/>
</linearGradient>
<linearGradient id="paint1_linear_40_4" x1="339.09" y1="67.7881" x2="513.547" y2="429.536" gradientUnits="userSpaceOnUse">
<stop stop-color="#FF8F71"/>
<stop offset="1" stop-color="#FF3E55"/>
</linearGradient>
<linearGradient id="paint2_linear_40_4" x1="267.813" y1="104.936" x2="436.179" y2="170.093" gradientUnits="userSpaceOnUse">
<stop stop-color="#FF8F71"/>
<stop offset="1" stop-color="#FF3E55"/>
</linearGradient>
<clipPath id="clip0_40_4">
<rect width="471" height="498" fill="white"/>
</clipPath>
</defs>
</svg>
